{
    "packets": [
        {
            "codec_type": "video",
            "stream_index": 1,
            "pts": 6821142294,
            "pts_time": "75790.469933",
            "dts": 6380134194,
            "dts_time": "70890.379933",
            "duration": 3003,
            "duration_time": "0.033367",
            "size": "20081",
            "pos": "376",
            "flags": "K_",
            "side_data_list": [
                {
                    "side_data_type": "MPEGTS Stream ID"
                }
            ]
        },
        {
            "codec_type": "video",
            "stream_index": 1,
            "pts": 6380148144,
            "pts_time": "70890.534933",
            "dts": 6380142564,
            "dts_time": "70890.472933",
            "duration": 3003,
            "duration_time": "0.033367",
            "size": "1945",
            "pos": "21056",
            "flags": "__",
            "side_data_list": [
                {
                    "side_data_type": "MPEGTS Stream ID"
                }
            ]
        },
        {
            "codec_type": "video",
            "stream_index": 1,
            "pts": 6380153094,
            "pts_time": "70890.589933",
            "dts": 6380147334,
            "dts_time": "70890.525933",
            "duration": 3003,
            "duration_time": "0.033367",
            "size": "1475",
            "pos": "23124",
            "flags": "__",
            "side_data_list": [
                {
                    "side_data_type": "MPEGTS Stream ID"
                }
            ]
        },
        {
            "codec_type": "video",
            "stream_index": 1,
            "pts": 6380160024,
            "pts_time": "70890.666933",
            "dts": 6380152914,
            "dts_time": "70890.587933",
            "duration": 3003,
            "duration_time": "0.033367",
            "size": "1441",
            "pos": "24816",
            "flags": "__",
            "side_data_list": [
                {
                    "side_data_type": "MPEGTS Stream ID"
                }
            ]
        },
        {
            "codec_type": "video",
            "stream_index": 1,
            "pts": 6380164434,
            "pts_time": "70890.715933",
            "dts": 6380158674,
            "dts_time": "70890.651933",
            "duration": 3003,
            "duration_time": "0.033367",
            "size": "1518",
            "pos": "26320",
            "flags": "__",
            "side_data_list": [
                {
                    "side_data_type": "MPEGTS Stream ID"
                }
            ]
        },
        {
            "codec_type": "video",
            "stream_index": 1,
            "pts": 6380171634,
            "pts_time": "70890.795933",
            "dts": 6380165874,
            "dts_time": "70890.731933",
            "duration": 3003,
            "duration_time": "0.033367",
            "size": "1346",
            "pos": "28012",
            "flags": "__",
            "side_data_list": [
                {
                    "side_data_type": "MPEGTS Stream ID"
                }
            ]
        },
        {
            "codec_type": "video",
            "stream_index": 1,
            "pts": 6380178744,
            "pts_time": "70890.874933",
            "dts": 6380171634,
            "dts_time": "70890.795933",
            "duration": 3003,
            "duration_time": "0.033367",
            "size": "1249",
            "pos": "29516",
            "flags": "__",
            "side_data_list": [
                {
                    "side_data_type": "MPEGTS Stream ID"
                }
            ]
        },
        {
            "codec_type": "video",
            "stream_index": 1,
            "pts": 6380183154,
            "pts_time": "70890.923933",
            "dts": 6380177394,
            "dts_time": "70890.859933",
            "duration": 3003,
            "duration_time": "0.033367",
            "size": "1333",
            "pos": "30832",
            "flags": "__",
            "side_data_list": [
                {
                    "side_data_type": "MPEGTS Stream ID"
                }
            ]
        },
        {
            "codec_type": "video",
            "stream_index": 1,
            "pts": 6380190354,
            "pts_time": "70891.003933",
            "dts": 6380184594,
            "dts_time": "70890.939933",
            "duration": 3003,
            "duration_time": "0.033367",
            "size": "1100",
            "pos": "32336",
            "flags": "__",
            "side_data_list": [
                {
                    "side_data_type": "MPEGTS Stream ID"
                }
            ]
        },
        {
            "codec_type": "video",
            "stream_index": 1,
            "pts": 6380196114,
            "pts_time": "70891.067933",
            "dts": 6380190354,
            "dts_time": "70891.003933",
            "duration": 3003,
            "duration_time": "0.033367",
            "size": "1133",
            "pos": "33652",
            "flags": "__",
            "side_data_list": [
                {
                    "side_data_type": "MPEGTS Stream ID"
                }
            ]
        },
        {
            "codec_type": "video",
            "stream_index": 1,
            "pts": 6380203224,
            "pts_time": "70891.146933",
            "dts": 6380196114,
            "dts_time": "70891.067933",
            "duration": 3003,
            "duration_time": "0.033367",
            "size": "993",
            "pos": "34968",
            "flags": "__",
            "side_data_list": [
                {
                    "side_data_type": "MPEGTS Stream ID"
                }
            ]
        },
        {
            "codec_type": "video",
            "stream_index": 1,
            "pts": 6380207634,
            "pts_time": "70891.195933",
            "dts": 6380201874,
            "dts_time": "70891.131933",
            "duration": 3003,
            "duration_time": "0.033367",
            "size": "1004",
            "pos": "36096",
            "flags": "__",
            "side_data_list": [
                {
                    "side_data_type": "MPEGTS Stream ID"
                }
            ]
        },
        {
            "codec_type": "video",
            "stream_index": 1,
            "pts": 6380214744,
            "pts_time": "70891.274933",
            "dts": 6380209074,
            "dts_time": "70891.211933",
            "duration": 3003,
            "duration_time": "0.033367",
            "size": "1170",
            "pos": "37224",
            "flags": "__",
            "side_data_list": [
                {
                    "side_data_type": "MPEGTS Stream ID"
                }
            ]
        },
        {
            "codec_type": "video",
            "stream_index": 1,
            "pts": 6380221944,
            "pts_time": "70891.354933",
            "dts": 6380214834,
            "dts_time": "70891.275933",
            "duration": 3003,
            "duration_time": "0.033367",
            "size": "1085",
            "pos": "38540",
            "flags": "__",
            "side_data_list": [
                {
                    "side_data_type": "MPEGTS Stream ID"
                }
            ]
        },
        {
            "codec_type": "video",
            "stream_index": 1,
            "pts": 6380226354,
            "pts_time": "70891.403933",
            "dts": 6380220594,
            "dts_time": "70891.339933",
            "duration": 3003,
            "duration_time": "0.033367",
            "size": "994",
            "pos": "39856",
            "flags": "__",
            "side_data_list": [
                {
                    "side_data_type": "MPEGTS Stream ID"
                }
            ]
        },
        {
            "codec_type": "video",
            "stream_index": 1,
            "pts": 6380233554,
            "pts_time": "70891.483933",
            "dts": 6380227794,
            "dts_time": "70891.419933",
            "duration": 3003,
            "duration_time": "0.033367",
            "size": "1126",
            "pos": "40984",
            "flags": "__",
            "side_data_list": [
                {
                    "side_data_type": "MPEGTS Stream ID"
                }
            ]
        },
        {
            "codec_type": "video",
            "stream_index": 1,
            "pts": 6380239314,
            "pts_time": "70891.547933",
            "dts": 6380233554,
            "dts_time": "70891.483933",
            "duration": 3003,
            "duration_time": "0.033367",
            "size": "1355",
            "pos": "42300",
            "flags": "__",
            "side_data_list": [
                {
                    "side_data_type": "MPEGTS Stream ID"
                }
            ]
        },
        {
            "codec_type": "video",
            "stream_index": 1,
            "pts": 6380246424,
            "pts_time": "70891.626933",
            "dts": 6380239314,
            "dts_time": "70891.547933",
            "duration": 3003,
            "duration_time": "0.033367",
            "size": "1208",
            "pos": "43804",
            "flags": "__",
            "side_data_list": [
                {
                    "side_data_type": "MPEGTS Stream ID"
                }
            ]
        },
        {
            "codec_type": "video",
            "stream_index": 1,
            "pts": 6380252094,
            "pts_time": "70891.689933",
            "dts": 6380245074,
            "dts_time": "70891.611933",
            "duration": 3003,
            "duration_time": "0.033367",
            "size": "790",
            "pos": "45120",
            "flags": "__",
            "side_data_list": [
                {
                    "side_data_type": "MPEGTS Stream ID"
                }
            ]
        },
        {
            "codec_type": "video",
            "stream_index": 1,
            "pts": 6380256684,
            "pts_time": "70891.740933",
            "dts": 6380252274,
            "dts_time": "70891.691933",
            "duration": 3003,
            "duration_time": "0.033367",
            "size": "1146",
            "pos": "46060",
            "flags": "__",
            "side_data_list": [
                {
                    "side_data_type": "MPEGTS Stream ID"
                }
            ]
        },
        {
            "codec_type": "video",
            "stream_index": 1,
            "pts": 6380266494,
            "pts_time": "70891.849933",
            "dts": 6380259384,
            "dts_time": "70891.770933",
            "duration": 3003,
            "duration_time": "0.033367",
            "size": "1086",
            "pos": "47376",
            "flags": "__",
            "side_data_list": [
                {
                    "side_data_type": "MPEGTS Stream ID"
                }
            ]
        },
        {
            "codec_type": "video",
            "stream_index": 1,
            "pts": 6380270364,
            "pts_time": "70891.892933",
            "dts": 6380263794,
            "dts_time": "70891.819933",
            "duration": 3003,
            "duration_time": "0.033367",
            "size": "1209",
            "pos": "48692",
            "flags": "__",
            "side_data_list": [
                {
                    "side_data_type": "MPEGTS Stream ID"
                }
            ]
        },
        {
            "codec_type": "video",
            "stream_index": 1,
            "pts": 6380275944,
            "pts_time": "70891.954933",
            "dts": 6380270994,
            "dts_time": "70891.899933",
            "duration": 3003,
            "duration_time": "0.033367",
            "size": "1031",
            "pos": "50008",
            "flags": "__",
            "side_data_list": [
                {
                    "side_data_type": "MPEGTS Stream ID"
                }
            ]
        },
        {
            "codec_type": "video",
            "stream_index": 1,
            "pts": 6380283324,
            "pts_time": "70892.036933",
            "dts": 6380277564,
            "dts_time": "70891.972933",
            "duration": 3003,
            "duration_time": "0.033367",
            "size": "1031",
            "pos": "51136",
            "flags": "__",
            "side_data_list": [
                {
                    "side_data_type": "MPEGTS Stream ID"
                }
            ]
        },
        {
            "codec_type": "video",
            "stream_index": 1,
            "pts": 6380289624,
            "pts_time": "70892.106933",
            "dts": 6380282514,
            "dts_time": "70892.027933",
            "duration": 3003,
            "duration_time": "0.033367",
            "size": "1172",
            "pos": "52264",
            "flags": "__",
            "side_data_list": [
                {
                    "side_data_type": "MPEGTS Stream ID"
                }
            ]
        },
        {
            "codec_type": "video",
            "stream_index": 1,
            "pts": 6380294034,
            "pts_time": "70892.155933",
            "dts": 6380288274,
            "dts_time": "70892.091933",
            "duration": 3003,
            "duration_time": "0.033367",
            "size": "1076",
            "pos": "53580",
            "flags": "__",
            "side_data_list": [
                {
                    "side_data_type": "MPEGTS Stream ID"
                }
            ]
        },
        {
            "codec_type": "video",
            "stream_index": 1,
            "pts": 6380301234,
            "pts_time": "70892.235933",
            "dts": 6380295474,
            "dts_time": "70892.171933",
            "duration": 3003,
            "duration_time": "0.033367",
            "size": "842",
            "pos": "54708",
            "flags": "__",
            "side_data_list": [
                {
                    "side_data_type": "MPEGTS Stream ID"
                }
            ]
        },
        {
            "codec_type": "video",
            "stream_index": 1,
            "pts": 6380308344,
            "pts_time": "70892.314933",
            "dts": 6380301234,
            "dts_time": "70892.235933",
            "duration": 3003,
            "duration_time": "0.033367",
            "size": "833",
            "pos": "55648",
            "flags": "__",
            "side_data_list": [
                {
                    "side_data_type": "MPEGTS Stream ID"
                }
            ]
        },
        {
            "codec_type": "video",
            "stream_index": 1,
            "pts": 6380312754,
            "pts_time": "70892.363933",
            "dts": 6380306994,
            "dts_time": "70892.299933",
            "duration": 3003,
            "duration_time": "0.033367",
            "size": "710",
            "pos": "56588",
            "flags": "__",
            "side_data_list": [
                {
                    "side_data_type": "MPEGTS Stream ID"
                }
            ]
        },
        {
            "codec_type": "video",
            "stream_index": 1,
            "pts": 6380319864,
            "pts_time": "70892.442933",
            "dts": 6380314194,
            "dts_time": "70892.379933",
            "duration": 3003,
            "duration_time": "0.033367",
            "size": "807",
            "pos": "57528",
            "flags": "__",
            "side_data_list": [
                {
                    "side_data_type": "MPEGTS Stream ID"
                }
            ]
        },
        {
            "codec_type": "video",
            "stream_index": 1,
            "pts": 6380327064,
            "pts_time": "70892.522933",
            "dts": 6380319954,
            "dts_time": "70892.443933",
            "duration": 3003,
            "duration_time": "0.033367",
            "size": "797",
            "pos": "58468",
            "flags": "__",
            "side_data_list": [
                {
                    "side_data_type": "MPEGTS Stream ID"
                }
            ]
        },
        {
            "codec_type": "video",
            "stream_index": 1,
            "pts": 6380331474,
            "pts_time": "70892.571933",
            "dts": 6380325714,
            "dts_time": "70892.507933",
            "duration": 3003,
            "duration_time": "0.033367",
            "size": "800",
            "pos": "59408",
            "flags": "__",
            "side_data_list": [
                {
                    "side_data_type": "MPEGTS Stream ID"
                }
            ]
        },
        {
            "codec_type": "video",
            "stream_index": 1,
            "pts": 6380338584,
            "pts_time": "70892.650933",
            "dts": 6380332914,
            "dts_time": "70892.587933",
            "duration": 3003,
            "duration_time": "0.033367",
            "size": "731",
            "pos": "60348",
            "flags": "__",
            "side_data_list": [
                {
                    "side_data_type": "MPEGTS Stream ID"
                }
            ]
        },
        {
            "codec_type": "video",
            "stream_index": 1,
            "pts": 6380344434,
            "pts_time": "70892.715933",
            "dts": 6380338674,
            "dts_time": "70892.651933",
            "duration": 3003,
            "duration_time": "0.033367",
            "size": "613",
            "pos": "61288",
            "flags": "__",
            "side_data_list": [
                {
                    "side_data_type": "MPEGTS Stream ID"
                }
            ]
        },
        {
            "codec_type": "video",
            "stream_index": 1,
            "pts": 6380351544,
            "pts_time": "70892.794933",
            "dts": 6380344434,
            "dts_time": "70892.715933",
            "duration": 3003,
            "duration_time": "0.033367",
            "size": "543",
            "pos": "62040",
            "flags": "__",
            "side_data_list": [
                {
                    "side_data_type": "MPEGTS Stream ID"
                }
            ]
        },
        {
            "codec_type": "video",
            "stream_index": 1,
            "pts": 6380355954,
            "pts_time": "70892.843933",
            "dts": 6380350194,
            "dts_time": "70892.779933",
            "duration": 3003,
            "duration_time": "0.033367",
            "size": "615",
            "pos": "62792",
            "flags": "__",
            "side_data_list": [
                {
                    "side_data_type": "MPEGTS Stream ID"
                }
            ]
        },
        {
            "codec_type": "video",
            "stream_index": 1,
            "pts": 6380363064,
            "pts_time": "70892.922933",
            "dts": 6380357394,
            "dts_time": "70892.859933",
            "duration": 3003,
            "duration_time": "0.033367",
            "size": "423",
            "pos": "63544",
            "flags": "__",
            "side_data_list": [
                {
                    "side_data_type": "MPEGTS Stream ID"
                }
            ]
        },
        {
            "codec_type": "video",
            "stream_index": 1,
            "pts": 6380370264,
            "pts_time": "70893.002933",
            "dts": 6380363154,
            "dts_time": "70892.923933",
            "duration": 3003,
            "duration_time": "0.033367",
            "size": "414",
            "pos": "64108",
            "flags": "__",
            "side_data_list": [
                {
                    "side_data_type": "MPEGTS Stream ID"
                }
            ]
        },
        {
            "codec_type": "video",
            "stream_index": 1,
            "pts": 6380374674,
            "pts_time": "70893.051933",
            "dts": 6380368914,
            "dts_time": "70892.987933",
            "duration": 3003,
            "duration_time": "0.033367",
            "size": "551",
            "pos": "64672",
            "flags": "__",
            "side_data_list": [
                {
                    "side_data_type": "MPEGTS Stream ID"
                }
            ]
        },
        {
            "codec_type": "video",
            "stream_index": 1,
            "pts": 6380381784,
            "pts_time": "70893.130933",
            "dts": 6380376114,
            "dts_time": "70893.067933",
            "duration": 3003,
            "duration_time": "0.033367",
            "size": "641",
            "pos": "65424",
            "flags": "__",
            "side_data_list": [
                {
                    "side_data_type": "MPEGTS Stream ID"
                }
            ]
        },
        {
            "codec_type": "video",
            "stream_index": 1,
            "pts": 6380388714,
            "pts_time": "70893.207933",
            "dts": 6380381874,
            "dts_time": "70893.131933",
            "duration": 3003,
            "duration_time": "0.033367",
            "size": "693",
            "pos": "66176",
            "flags": "__",
            "side_data_list": [
                {
                    "side_data_type": "MPEGTS Stream ID"
                }
            ]
        },
        {
            "codec_type": "video",
            "stream_index": 1,
            "pts": 6380393664,
            "pts_time": "70893.262933",
            "dts": 6380387634,
            "dts_time": "70893.195933",
            "duration": 3003,
            "duration_time": "0.033367",
            "size": "618",
            "pos": "66928",
            "flags": "__",
            "side_data_list": [
                {
                    "side_data_type": "MPEGTS Stream ID"
                }
            ]
        },
        {
            "codec_type": "video",
            "stream_index": 1,
            "pts": 6380400234,
            "pts_time": "70893.335933",
            "dts": 6380394474,
            "dts_time": "70893.271933",
            "duration": 3003,
            "duration_time": "0.033367",
            "size": "622",
            "pos": "67680",
            "flags": "__",
            "side_data_list": [
                {
                    "side_data_type": "MPEGTS Stream ID"
                }
            ]
        },
        {
            "codec_type": "video",
            "stream_index": 1,
            "pts": 6380406714,
            "pts_time": "70893.407933",
            "dts": 6380400594,
            "dts_time": "70893.339933",
            "duration": 3003,
            "duration_time": "0.033367",
            "size": "708",
            "pos": "68432",
            "flags": "__",
            "side_data_list": [
                {
                    "side_data_type": "MPEGTS Stream ID"
                }
            ]
        },
        {
            "codec_type": "video",
            "stream_index": 1,
            "pts": 6380413104,
            "pts_time": "70893.478933",
            "dts": 6380406354,
            "dts_time": "70893.403933",
            "duration": 3003,
            "duration_time": "0.033367",
            "size": "573",
            "pos": "69184",
            "flags": "__",
            "side_data_list": [
                {
                    "side_data_type": "MPEGTS Stream ID"
                }
            ]
        },
        {
            "codec_type": "video",
            "stream_index": 1,
            "pts": 6380418234,
            "pts_time": "70893.535933",
            "dts": 6380412564,
            "dts_time": "70893.472933",
            "duration": 3003,
            "duration_time": "0.033367",
            "size": "591",
            "pos": "69936",
            "flags": "__",
            "side_data_list": [
                {
                    "side_data_type": "MPEGTS Stream ID"
                }
            ]
        },
        {
            "codec_type": "video",
            "stream_index": 1,
            "pts": 6380425074,
            "pts_time": "70893.611933",
            "dts": 6380419314,
            "dts_time": "70893.547933",
            "duration": 3003,
            "duration_time": "0.033367",
            "size": "494",
            "pos": "70688",
            "flags": "__",
            "side_data_list": [
                {
                    "side_data_type": "MPEGTS Stream ID"
                }
            ]
        },
        {
            "codec_type": "video",
            "stream_index": 1,
            "pts": 6380430834,
            "pts_time": "70893.675933",
            "dts": 6380425074,
            "dts_time": "70893.611933",
            "duration": 3003,
            "duration_time": "0.033367",
            "size": "513",
            "pos": "71252",
            "flags": "__",
            "side_data_list": [
                {
                    "side_data_type": "MPEGTS Stream ID"
                }
            ]
        },
        {
            "codec_type": "video",
            "stream_index": 1,
            "pts": 6380437944,
            "pts_time": "70893.754933",
            "dts": 6380430834,
            "dts_time": "70893.675933",
            "duration": 3003,
            "duration_time": "0.033367",
            "size": "532",
            "pos": "71816",
            "flags": "__",
            "side_data_list": [
                {
                    "side_data_type": "MPEGTS Stream ID"
                }
            ]
        },
        {
            "codec_type": "video",
            "stream_index": 1,
            "pts": 6380442354,
            "pts_time": "70893.803933",
            "dts": 6380436594,
            "dts_time": "70893.739933",
            "duration": 3003,
            "duration_time": "0.033367",
            "size": "435",
            "pos": "72568",
            "flags": "__",
            "side_data_list": [
                {
                    "side_data_type": "MPEGTS Stream ID"
                }
            ]
        },
        {
            "codec_type": "video",
            "stream_index": 1,
            "pts": 6380449554,
            "pts_time": "70893.883933",
            "dts": 6380443794,
            "dts_time": "70893.819933",
            "duration": 3003,
            "duration_time": "0.033367",
            "size": "444",
            "pos": "73132",
            "flags": "__",
            "side_data_list": [
                {
                    "side_data_type": "MPEGTS Stream ID"
                }
            ]
        },
        {
            "codec_type": "video",
            "stream_index": 1,
            "pts": 6380456664,
            "pts_time": "70893.962933",
            "dts": 6380449554,
            "dts_time": "70893.883933",
            "duration": 3003,
            "duration_time": "0.033367",
            "size": "434",
            "pos": "73696",
            "flags": "__",
            "side_data_list": [
                {
                    "side_data_type": "MPEGTS Stream ID"
                }
            ]
        },
        {
            "codec_type": "video",
            "stream_index": 1,
            "pts": 6380461074,
            "pts_time": "70894.011933",
            "dts": 6380455314,
            "dts_time": "70893.947933",
            "duration": 3003,
            "duration_time": "0.033367",
            "size": "429",
            "pos": "74260",
            "flags": "__",
            "side_data_list": [
                {
                    "side_data_type": "MPEGTS Stream ID"
                }
            ]
        },
        {
            "codec_type": "video",
            "stream_index": 1,
            "pts": 6380468274,
            "pts_time": "70894.091933",
            "dts": 6380462514,
            "dts_time": "70894.027933",
            "duration": 3003,
            "duration_time": "0.033367",
            "size": "475",
            "pos": "74824",
            "flags": "__",
            "side_data_list": [
                {
                    "side_data_type": "MPEGTS Stream ID"
                }
            ]
        },
        {
            "codec_type": "video",
            "stream_index": 1,
            "pts": 6380474034,
            "pts_time": "70894.155933",
            "dts": 6380468274,
            "dts_time": "70894.091933",
            "duration": 3003,
            "duration_time": "0.033367",
            "size": "561",
            "pos": "75388",
            "flags": "__",
            "side_data_list": [
                {
                    "side_data_type": "MPEGTS Stream ID"
                }
            ]
        },
        {
            "codec_type": "video",
            "stream_index": 1,
            "pts": 6380481144,
            "pts_time": "70894.234933",
            "dts": 6380474034,
            "dts_time": "70894.155933",
            "duration": 3003,
            "duration_time": "0.033367",
            "size": "537",
            "pos": "76140",
            "flags": "__",
            "side_data_list": [
                {
                    "side_data_type": "MPEGTS Stream ID"
                }
            ]
        },
        {
            "codec_type": "video",
            "stream_index": 1,
            "pts": 6380485554,
            "pts_time": "70894.283933",
            "dts": 6380479794,
            "dts_time": "70894.219933",
            "duration": 3003,
            "duration_time": "0.033367",
            "size": "496",
            "pos": "76892",
            "flags": "__",
            "side_data_list": [
                {
                    "side_data_type": "MPEGTS Stream ID"
                }
            ]
        },
        {
            "codec_type": "video",
            "stream_index": 1,
            "pts": 6380492754,
            "pts_time": "70894.363933",
            "dts": 6380486994,
            "dts_time": "70894.299933",
            "duration": 3003,
            "duration_time": "0.033367",
            "size": "552",
            "pos": "77456",
            "flags": "__",
            "side_data_list": [
                {
                    "side_data_type": "MPEGTS Stream ID"
                }
            ]
        },
        {
            "codec_type": "video",
            "stream_index": 1,
            "pts": 6380499864,
            "pts_time": "70894.442933",
            "dts": 6380492754,
            "dts_time": "70894.363933",
            "duration": 3003,
            "duration_time": "0.033367",
            "size": "522",
            "pos": "78208",
            "flags": "__",
            "side_data_list": [
                {
                    "side_data_type": "MPEGTS Stream ID"
                }
            ]
        },
        {
            "codec_type": "video",
            "stream_index": 1,
            "pts": 6380504364,
            "pts_time": "70894.492933",
            "dts": 6380498604,
            "dts_time": "70894.428933",
            "duration": 3003,
            "duration_time": "0.033367",
            "size": "522",
            "pos": "78772",
            "flags": "__",
            "side_data_list": [
                {
                    "side_data_type": "MPEGTS Stream ID"
                }
            ]
        },
        {
            "codec_type": "video",
            "stream_index": 1,
            "pts": 6380511474,
            "pts_time": "70894.571933",
            "dts": 6380505714,
            "dts_time": "70894.507933",
            "duration": 3003,
            "duration_time": "0.033367",
            "size": "504",
            "pos": "79336",
            "flags": "__",
            "side_data_list": [
                {
                    "side_data_type": "MPEGTS Stream ID"
                }
            ]
        },
        {
            "codec_type": "video",
            "stream_index": 1,
            "pts": 6380517234,
            "pts_time": "70894.635933",
            "dts": 6380511474,
            "dts_time": "70894.571933",
            "duration": 3003,
            "duration_time": "0.033367",
            "size": "559",
            "pos": "79900",
            "flags": "__",
            "side_data_list": [
                {
                    "side_data_type": "MPEGTS Stream ID"
                }
            ]
        },
        {
            "codec_type": "video",
            "stream_index": 1,
            "pts": 6380524434,
            "pts_time": "70894.715933",
            "dts": 6380517324,
            "dts_time": "70894.636933",
            "duration": 3003,
            "duration_time": "0.033367",
            "size": "617",
            "pos": "80652",
            "flags": "__",
            "side_data_list": [
                {
                    "side_data_type": "MPEGTS Stream ID"
                }
            ]
        },
        {
            "codec_type": "video",
            "stream_index": 1,
            "pts": 6380528754,
            "pts_time": "70894.763933",
            "dts": 6380523084,
            "dts_time": "70894.700933",
            "duration": 3003,
            "duration_time": "0.033367",
            "size": "666",
            "pos": "81404",
            "flags": "__",
            "side_data_list": [
                {
                    "side_data_type": "MPEGTS Stream ID"
                }
            ]
        },
        {
            "codec_type": "video",
            "stream_index": 1,
            "pts": 6380535954,
            "pts_time": "70894.843933",
            "dts": 6380530284,
            "dts_time": "70894.780933",
            "duration": 3003,
            "duration_time": "0.033367",
            "size": "634",
            "pos": "82156",
            "flags": "__",
            "side_data_list": [
                {
                    "side_data_type": "MPEGTS Stream ID"
                }
            ]
        },
        {
            "codec_type": "video",
            "stream_index": 1,
            "pts": 6380543154,
            "pts_time": "70894.923933",
            "dts": 6380535954,
            "dts_time": "70894.843933",
            "duration": 3003,
            "duration_time": "0.033367",
            "size": "636",
            "pos": "82908",
            "flags": "__",
            "side_data_list": [
                {
                    "side_data_type": "MPEGTS Stream ID"
                }
            ]
        },
        {
            "codec_type": "video",
            "stream_index": 1,
            "pts": 6380547384,
            "pts_time": "70894.970933",
            "dts": 6380541714,
            "dts_time": "70894.907933",
            "duration": 3003,
            "duration_time": "0.033367",
            "size": "777",
            "pos": "83660",
            "flags": "__",
            "side_data_list": [
                {
                    "side_data_type": "MPEGTS Stream ID"
                }
            ]
        },
        {
            "codec_type": "video",
            "stream_index": 1,
            "pts": 6380554764,
            "pts_time": "70895.052933",
            "dts": 6380549004,
            "dts_time": "70894.988933",
            "duration": 3003,
            "duration_time": "0.033367",
            "size": "923",
            "pos": "84600",
            "flags": "__",
            "side_data_list": [
                {
                    "side_data_type": "MPEGTS Stream ID"
                }
            ]
        },
        {
            "codec_type": "video",
            "stream_index": 1,
            "pts": 6380561784,
            "pts_time": "70895.130933",
            "dts": 6380554674,
            "dts_time": "70895.051933",
            "duration": 3003,
            "duration_time": "0.033367",
            "size": "1109",
            "pos": "85728",
            "flags": "__",
            "side_data_list": [
                {
                    "side_data_type": "MPEGTS Stream ID"
                }
            ]
        },
        {
            "codec_type": "video",
            "stream_index": 1,
            "pts": 6380567454,
            "pts_time": "70895.193933",
            "dts": 6380560434,
            "dts_time": "70895.115933",
            "duration": 3003,
            "duration_time": "0.033367",
            "size": "1286",
            "pos": "87044",
            "flags": "__",
            "side_data_list": [
                {
                    "side_data_type": "MPEGTS Stream ID"
                }
            ]
        },
        {
            "codec_type": "video",
            "stream_index": 1,
            "pts": 6380572134,
            "pts_time": "70895.245933",
            "dts": 6380567634,
            "dts_time": "70895.195933",
            "duration": 3003,
            "duration_time": "0.033367",
            "size": "1430",
            "pos": "88548",
            "flags": "__",
            "side_data_list": [
                {
                    "side_data_type": "MPEGTS Stream ID"
                }
            ]
        },
        {
            "codec_type": "video",
            "stream_index": 1,
            "pts": 6380580414,
            "pts_time": "70895.337933",
            "dts": 6380574654,
            "dts_time": "70895.273933",
            "duration": 3003,
            "duration_time": "0.033367",
            "size": "1451",
            "pos": "90052",
            "flags": "__",
            "side_data_list": [
                {
                    "side_data_type": "MPEGTS Stream ID"
                }
            ]
        },
        {
            "codec_type": "video",
            "stream_index": 1,
            "pts": 6380586264,
            "pts_time": "70895.402933",
            "dts": 6380579154,
            "dts_time": "70895.323933",
            "duration": 3003,
            "duration_time": "0.033367",
            "size": "1584",
            "pos": "91744",
            "flags": "__",
            "side_data_list": [
                {
                    "side_data_type": "MPEGTS Stream ID"
                }
            ]
        },
        {
            "codec_type": "video",
            "stream_index": 1,
            "pts": 6380590674,
            "pts_time": "70895.451933",
            "dts": 6380584914,
            "dts_time": "70895.387933",
            "duration": 3003,
            "duration_time": "0.033367",
            "size": "1945",
            "pos": "93436",
            "flags": "__",
            "side_data_list": [
                {
                    "side_data_type": "MPEGTS Stream ID"
                }
            ]
        },
        {
            "codec_type": "video",
            "stream_index": 1,
            "pts": 6380597874,
            "pts_time": "70895.531933",
            "dts": 6380592114,
            "dts_time": "70895.467933",
            "duration": 3003,
            "duration_time": "0.033367",
            "size": "1934",
            "pos": "95504",
            "flags": "__",
            "side_data_list": [
                {
                    "side_data_type": "MPEGTS Stream ID"
                }
            ]
        },
        {
            "codec_type": "video",
            "stream_index": 1,
            "pts": 6380604984,
            "pts_time": "70895.610933",
            "dts": 6380597874,
            "dts_time": "70895.531933",
            "duration": 3003,
            "duration_time": "0.033367",
            "size": "2286",
            "pos": "97572",
            "flags": "__",
            "side_data_list": [
                {
                    "side_data_type": "MPEGTS Stream ID"
                }
            ]
        },
        {
            "codec_type": "video",
            "stream_index": 1,
            "pts": 6380609394,
            "pts_time": "70895.659933",
            "dts": 6380603634,
            "dts_time": "70895.595933",
            "duration": 3003,
            "duration_time": "0.033367",
            "size": "2485",
            "pos": "100016",
            "flags": "__",
            "side_data_list": [
                {
                    "side_data_type": "MPEGTS Stream ID"
                }
            ]
        },
        {
            "codec_type": "video",
            "stream_index": 1,
            "pts": 6380616684,
            "pts_time": "70895.740933",
            "dts": 6380610834,
            "dts_time": "70895.675933",
            "duration": 3003,
            "duration_time": "0.033367",
            "size": "1964",
            "pos": "102648",
            "flags": "__",
            "side_data_list": [
                {
                    "side_data_type": "MPEGTS Stream ID"
                }
            ]
        },
        {
            "codec_type": "video",
            "stream_index": 1,
            "pts": 6380622174,
            "pts_time": "70895.801933",
            "dts": 6380616594,
            "dts_time": "70895.739933",
            "duration": 3003,
            "duration_time": "0.033367",
            "size": "1588",
            "pos": "104716",
            "flags": "__",
            "side_data_list": [
                {
                    "side_data_type": "MPEGTS Stream ID"
                }
            ]
        },
        {
            "codec_type": "video",
            "stream_index": 1,
            "pts": 6380629554,
            "pts_time": "70895.883933",
            "dts": 6380622444,
            "dts_time": "70895.804933",
            "duration": 3003,
            "duration_time": "0.033367",
            "size": "1590",
            "pos": "106408",
            "flags": "__",
            "side_data_list": [
                {
                    "side_data_type": "MPEGTS Stream ID"
                }
            ]
        },
        {
            "codec_type": "video",
            "stream_index": 1,
            "pts": 6380633874,
            "pts_time": "70895.931933",
            "dts": 6380628114,
            "dts_time": "70895.867933",
            "duration": 3003,
            "duration_time": "0.033367",
            "size": "1467",
            "pos": "108100",
            "flags": "__",
            "side_data_list": [
                {
                    "side_data_type": "MPEGTS Stream ID"
                }
            ]
        },
        {
            "codec_type": "video",
            "stream_index": 1,
            "pts": 6380640984,
            "pts_time": "70896.010933",
            "dts": 6380635314,
            "dts_time": "70895.947933",
            "duration": 3003,
            "duration_time": "0.033367",
            "size": "1447",
            "pos": "109792",
            "flags": "__",
            "side_data_list": [
                {
                    "side_data_type": "MPEGTS Stream ID"
                }
            ]
        },
        {
            "codec_type": "video",
            "stream_index": 1,
            "pts": 6380648184,
            "pts_time": "70896.090933",
            "dts": 6380641074,
            "dts_time": "70896.011933",
            "duration": 3003,
            "duration_time": "0.033367",
            "size": "1669",
            "pos": "111484",
            "flags": "__",
            "side_data_list": [
                {
                    "side_data_type": "MPEGTS Stream ID"
                }
            ]
        },
        {
            "codec_type": "video",
            "stream_index": 1,
            "pts": 6380652594,
            "pts_time": "70896.139933",
            "dts": 6380646834,
            "dts_time": "70896.075933",
            "duration": 3003,
            "duration_time": "0.033367",
            "size": "1421",
            "pos": "113364",
            "flags": "__",
            "side_data_list": [
                {
                    "side_data_type": "MPEGTS Stream ID"
                }
            ]
        },
        {
            "codec_type": "video",
            "stream_index": 1,
            "pts": 6380659794,
            "pts_time": "70896.219933",
            "dts": 6380654034,
            "dts_time": "70896.155933",
            "duration": 3003,
            "duration_time": "0.033367",
            "size": "1565",
            "pos": "114868",
            "flags": "__",
            "side_data_list": [
                {
                    "side_data_type": "MPEGTS Stream ID"
                }
            ]
        },
        {
            "codec_type": "video",
            "stream_index": 1,
            "pts": 6380665464,
            "pts_time": "70896.282933",
            "dts": 6380659794,
            "dts_time": "70896.219933",
            "duration": 3003,
            "duration_time": "0.033367",
            "size": "1533",
            "pos": "116560",
            "flags": "__",
            "side_data_list": [
                {
                    "side_data_type": "MPEGTS Stream ID"
                }
            ]
        },
        {
            "codec_type": "video",
            "stream_index": 1,
            "pts": 6380672664,
            "pts_time": "70896.362933",
            "dts": 6380665554,
            "dts_time": "70896.283933",
            "duration": 3003,
            "duration_time": "0.033367",
            "size": "1292",
            "pos": "118252",
            "flags": "__",
            "side_data_list": [
                {
                    "side_data_type": "MPEGTS Stream ID"
                }
            ]
        },
        {
            "codec_type": "video",
            "stream_index": 1,
            "pts": 6380677164,
            "pts_time": "70896.412933",
            "dts": 6380671314,
            "dts_time": "70896.347933",
            "duration": 3003,
            "duration_time": "0.033367",
            "size": "1139",
            "pos": "119756",
            "flags": "__",
            "side_data_list": [
                {
                    "side_data_type": "MPEGTS Stream ID"
                }
            ]
        },
        {
            "codec_type": "video",
            "stream_index": 1,
            "pts": 6380684094,
            "pts_time": "70896.489933",
            "dts": 6380678514,
            "dts_time": "70896.427933",
            "duration": 3003,
            "duration_time": "0.033367",
            "size": "1207",
            "pos": "121072",
            "flags": "__",
            "side_data_list": [
                {
                    "side_data_type": "MPEGTS Stream ID"
                }
            ]
        },
        {
            "codec_type": "video",
            "stream_index": 1,
            "pts": 6380691474,
            "pts_time": "70896.571933",
            "dts": 6380684364,
            "dts_time": "70896.492933",
            "duration": 3003,
            "duration_time": "0.033367",
            "size": "1159",
            "pos": "122388",
            "flags": "__",
            "side_data_list": [
                {
                    "side_data_type": "MPEGTS Stream ID"
                }
            ]
        },
        {
            "codec_type": "video",
            "stream_index": 1,
            "pts": 6380695794,
            "pts_time": "70896.619933",
            "dts": 6380690034,
            "dts_time": "70896.555933",
            "duration": 3003,
            "duration_time": "0.033367",
            "size": "877",
            "pos": "123704",
            "flags": "__",
            "side_data_list": [
                {
                    "side_data_type": "MPEGTS Stream ID"
                }
            ]
        },
        {
            "codec_type": "video",
            "stream_index": 1,
            "pts": 6380703804,
            "pts_time": "70896.708933",
            "dts": 6380697234,
            "dts_time": "70896.635933",
            "duration": 3003,
            "duration_time": "0.033367",
            "size": "1183",
            "pos": "124644",
            "flags": "__",
            "side_data_list": [
                {
                    "side_data_type": "MPEGTS Stream ID"
                }
            ]
        },
        {
            "codec_type": "video",
            "stream_index": 1,
            "pts": 6380707854,
            "pts_time": "70896.753933",
            "dts": 6380702994,
            "dts_time": "70896.699933",
            "duration": 3003,
            "duration_time": "0.033367",
            "size": "2142",
            "pos": "125960",
            "flags": "__",
            "side_data_list": [
                {
                    "side_data_type": "MPEGTS Stream ID"
                }
            ]
        },
        {
            "codec_type": "video",
            "stream_index": 1,
            "pts": 6380716674,
            "pts_time": "70896.851933",
            "dts": 6380709564,
            "dts_time": "70896.772933",
            "duration": 3003,
            "duration_time": "0.033367",
            "size": "1364",
            "pos": "128216",
            "flags": "__",
            "side_data_list": [
                {
                    "side_data_type": "MPEGTS Stream ID"
                }
            ]
        },
        {
            "codec_type": "video",
            "stream_index": 1,
            "pts": 6380720184,
            "pts_time": "70896.890933",
            "dts": 6380714424,
            "dts_time": "70896.826933",
            "duration": 3003,
            "duration_time": "0.033367",
            "size": "1096",
            "pos": "129720",
            "flags": "__",
            "side_data_list": [
                {
                    "side_data_type": "MPEGTS Stream ID"
                }
            ]
        },
        {
            "codec_type": "video",
            "stream_index": 1,
            "pts": 6380727384,
            "pts_time": "70896.970933",
            "dts": 6380721624,
            "dts_time": "70896.906933",
            "duration": 3003,
            "duration_time": "0.033367",
            "size": "1240",
            "pos": "131036",
            "flags": "__",
            "side_data_list": [
                {
                    "side_data_type": "MPEGTS Stream ID"
                }
            ]
        },
        {
            "codec_type": "video",
            "stream_index": 1,
            "pts": 6380734494,
            "pts_time": "70897.049933",
            "dts": 6380727384,
            "dts_time": "70896.970933",
            "duration": 3003,
            "duration_time": "0.033367",
            "size": "1147",
            "pos": "132352",
            "flags": "__",
            "side_data_list": [
                {
                    "side_data_type": "MPEGTS Stream ID"
                }
            ]
        },
        {
            "codec_type": "video",
            "stream_index": 1,
            "pts": 6380738904,
            "pts_time": "70897.098933",
            "dts": 6380733144,
            "dts_time": "70897.034933",
            "duration": 3003,
            "duration_time": "0.033367",
            "size": "1105",
            "pos": "133668",
            "flags": "__",
            "side_data_list": [
                {
                    "side_data_type": "MPEGTS Stream ID"
                }
            ]
        },
        {
            "codec_type": "video",
            "stream_index": 1,
            "pts": 6380746914,
            "pts_time": "70897.187933",
            "dts": 6380740344,
            "dts_time": "70897.114933",
            "duration": 3003,
            "duration_time": "0.033367",
            "size": "1107",
            "pos": "134984",
            "flags": "__",
            "side_data_list": [
                {
                    "side_data_type": "MPEGTS Stream ID"
                }
            ]
        },
        {
            "codec_type": "video",
            "stream_index": 1,
            "pts": 6380752404,
            "pts_time": "70897.248933",
            "dts": 6380746104,
            "dts_time": "70897.178933",
            "duration": 3003,
            "duration_time": "0.033367",
            "size": "2061",
            "pos": "136300",
            "flags": "__",
            "side_data_list": [
                {
                    "side_data_type": "MPEGTS Stream ID"
                }
            ]
        },
        {
            "codec_type": "video",
            "stream_index": 1,
            "pts": 6380758344,
            "pts_time": "70897.314933",
            "dts": 6380752674,
            "dts_time": "70897.251933",
            "duration": 3003,
            "duration_time": "0.033367",
            "size": "1435",
            "pos": "138556",
            "flags": "__",
            "side_data_list": [
                {
                    "side_data_type": "MPEGTS Stream ID"
                }
            ]
        },
        {
            "codec_type": "video",
            "stream_index": 1,
            "pts": 6380765094,
            "pts_time": "70897.389933",
            "dts": 6380759064,
            "dts_time": "70897.322933",
            "duration": 3003,
            "duration_time": "0.033367",
            "size": "1338",
            "pos": "140060",
            "flags": "__",
            "side_data_list": [
                {
                    "side_data_type": "MPEGTS Stream ID"
                }
            ]
        },
        {
            "codec_type": "video",
            "stream_index": 1,
            "pts": 6380770314,
            "pts_time": "70897.447933",
            "dts": 6380764824,
            "dts_time": "70897.386933",
            "duration": 3003,
            "duration_time": "0.033367",
            "size": "988",
            "pos": "141564",
            "flags": "__",
            "side_data_list": [
                {
                    "side_data_type": "MPEGTS Stream ID"
                }
            ]
        },
        {
            "codec_type": "video",
            "stream_index": 1,
            "pts": 6380777964,
            "pts_time": "70897.532933",
            "dts": 6380770854,
            "dts_time": "70897.453933",
            "duration": 3003,
            "duration_time": "0.033367",
            "size": "955",
            "pos": "142692",
            "flags": "__",
            "side_data_list": [
                {
                    "side_data_type": "MPEGTS Stream ID"
                }
            ]
        },
        {
            "codec_type": "video",
            "stream_index": 1,
            "pts": 6380782104,
            "pts_time": "70897.578933",
            "dts": 6380776344,
            "dts_time": "70897.514933",
            "duration": 3003,
            "duration_time": "0.033367",
            "size": "779",
            "pos": "143820",
            "flags": "__",
            "side_data_list": [
                {
                    "side_data_type": "MPEGTS Stream ID"
                }
            ]
        },
        {
            "codec_type": "video",
            "stream_index": 1,
            "pts": 6380789304,
            "pts_time": "70897.658933",
            "dts": 6380783544,
            "dts_time": "70897.594933",
            "duration": 3003,
            "duration_time": "0.033367",
            "size": "1247",
            "pos": "144760",
            "flags": "__",
            "side_data_list": [
                {
                    "side_data_type": "MPEGTS Stream ID"
                }
            ]
        },
        {
            "codec_type": "video",
            "stream_index": 1,
            "pts": 6380796414,
            "pts_time": "70897.737933",
            "dts": 6380789304,
            "dts_time": "70897.658933",
            "duration": 3003,
            "duration_time": "0.033367",
            "size": "1117",
            "pos": "146076",
            "flags": "__",
            "side_data_list": [
                {
                    "side_data_type": "MPEGTS Stream ID"
                }
            ]
        },
        {
            "codec_type": "video",
            "stream_index": 1,
            "pts": 6380800914,
            "pts_time": "70897.787933",
            "dts": 6380795154,
            "dts_time": "70897.723933",
            "duration": 3003,
            "duration_time": "0.033367",
            "size": "855",
            "pos": "147392",
            "flags": "__",
            "side_data_list": [
                {
                    "side_data_type": "MPEGTS Stream ID"
                }
            ]
        },
        {
            "codec_type": "video",
            "stream_index": 1,
            "pts": 6380808114,
            "pts_time": "70897.867933",
            "dts": 6380802354,
            "dts_time": "70897.803933",
            "duration": 3003,
            "duration_time": "0.033367",
            "size": "738",
            "pos": "148332",
            "flags": "__",
            "side_data_list": [
                {
                    "side_data_type": "MPEGTS Stream ID"
                }
            ]
        },
        {
            "codec_type": "video",
            "stream_index": 1,
            "pts": 6380813964,
            "pts_time": "70897.932933",
            "dts": 6380808114,
            "dts_time": "70897.867933",
            "duration": 3003,
            "duration_time": "0.033367",
            "size": "591",
            "pos": "149272",
            "flags": "__",
            "side_data_list": [
                {
                    "side_data_type": "MPEGTS Stream ID"
                }
            ]
        },
        {
            "codec_type": "video",
            "stream_index": 1,
            "pts": 6380820894,
            "pts_time": "70898.009933",
            "dts": 6380813874,
            "dts_time": "70897.931933",
            "duration": 3003,
            "duration_time": "0.033367",
            "size": "563",
            "pos": "150024",
            "flags": "__",
            "side_data_list": [
                {
                    "side_data_type": "MPEGTS Stream ID"
                }
            ]
        },
        {
            "codec_type": "video",
            "stream_index": 1,
            "pts": 6380825394,
            "pts_time": "70898.059933",
            "dts": 6380819724,
            "dts_time": "70897.996933",
            "duration": 3003,
            "duration_time": "0.033367",
            "size": "570",
            "pos": "150776",
            "flags": "__",
            "side_data_list": [
                {
                    "side_data_type": "MPEGTS Stream ID"
                }
            ]
        },
        {
            "codec_type": "video",
            "stream_index": 1,
            "pts": 6380832594,
            "pts_time": "70898.139933",
            "dts": 6380826834,
            "dts_time": "70898.075933",
            "duration": 3003,
            "duration_time": "0.033367",
            "size": "936",
            "pos": "151528",
            "flags": "__",
            "side_data_list": [
                {
                    "side_data_type": "MPEGTS Stream ID"
                }
            ]
        },
        {
            "codec_type": "video",
            "stream_index": 1,
            "pts": 6380839704,
            "pts_time": "70898.218933",
            "dts": 6380832594,
            "dts_time": "70898.139933",
            "duration": 3003,
            "duration_time": "0.033367",
            "size": "909",
            "pos": "152656",
            "flags": "__",
            "side_data_list": [
                {
                    "side_data_type": "MPEGTS Stream ID"
                }
            ]
        },
        {
            "codec_type": "video",
            "stream_index": 1,
            "pts": 6380844024,
            "pts_time": "70898.266933",
            "dts": 6380838354,
            "dts_time": "70898.203933",
            "duration": 3003,
            "duration_time": "0.033367",
            "size": "882",
            "pos": "153784",
            "flags": "__",
            "side_data_list": [
                {
                    "side_data_type": "MPEGTS Stream ID"
                }
            ]
        },
        {
            "codec_type": "video",
            "stream_index": 1,
            "pts": 6380851314,
            "pts_time": "70898.347933",
            "dts": 6380845554,
            "dts_time": "70898.283933",
            "duration": 3003,
            "duration_time": "0.033367",
            "size": "967",
            "pos": "154724",
            "flags": "__",
            "side_data_list": [
                {
                    "side_data_type": "MPEGTS Stream ID"
                }
            ]
        },
        {
            "codec_type": "video",
            "stream_index": 1,
            "pts": 6380857074,
            "pts_time": "70898.411933",
            "dts": 6380851314,
            "dts_time": "70898.347933",
            "duration": 3003,
            "duration_time": "0.033367",
            "size": "888",
            "pos": "155852",
            "flags": "__",
            "side_data_list": [
                {
                    "side_data_type": "MPEGTS Stream ID"
                }
            ]
        },
        {
            "codec_type": "video",
            "stream_index": 1,
            "pts": 6380864184,
            "pts_time": "70898.490933",
            "dts": 6380857074,
            "dts_time": "70898.411933",
            "duration": 3003,
            "duration_time": "0.033367",
            "size": "1080",
            "pos": "156792",
            "flags": "__",
            "side_data_list": [
                {
                    "side_data_type": "MPEGTS Stream ID"
                }
            ]
        },
        {
            "codec_type": "video",
            "stream_index": 1,
            "pts": 6380868594,
            "pts_time": "70898.539933",
            "dts": 6380862834,
            "dts_time": "70898.475933",
            "duration": 3003,
            "duration_time": "0.033367",
            "size": "1065",
            "pos": "158108",
            "flags": "__",
            "side_data_list": [
                {
                    "side_data_type": "MPEGTS Stream ID"
                }
            ]
        },
        {
            "codec_type": "video",
            "stream_index": 1,
            "pts": 6380875794,
            "pts_time": "70898.619933",
            "dts": 6380870034,
            "dts_time": "70898.555933",
            "duration": 3003,
            "duration_time": "0.033367",
            "size": "876",
            "pos": "159236",
            "flags": "__",
            "side_data_list": [
                {
                    "side_data_type": "MPEGTS Stream ID"
                }
            ]
        },
        {
            "codec_type": "video",
            "stream_index": 1,
            "pts": 6380883534,
            "pts_time": "70898.705933",
            "dts": 6380875794,
            "dts_time": "70898.619933",
            "duration": 3003,
            "duration_time": "0.033367",
            "size": "1044",
            "pos": "160176",
            "flags": "__",
            "side_data_list": [
                {
                    "side_data_type": "MPEGTS Stream ID"
                }
            ]
        },
        {
            "codec_type": "video",
            "stream_index": 1,
            "pts": 6380886684,
            "pts_time": "70898.740933",
            "dts": 6380881554,
            "dts_time": "70898.683933",
            "duration": 3003,
            "duration_time": "0.033367",
            "size": "1448",
            "pos": "161304",
            "flags": "__",
            "side_data_list": [
                {
                    "side_data_type": "MPEGTS Stream ID"
                }
            ]
        },
        {
            "codec_type": "video",
            "stream_index": 1,
            "pts": 6380895054,
            "pts_time": "70898.833933",
            "dts": 6380889294,
            "dts_time": "70898.769933",
            "duration": 3003,
            "duration_time": "0.033367",
            "size": "1143",
            "pos": "162996",
            "flags": "__",
            "side_data_list": [
                {
                    "side_data_type": "MPEGTS Stream ID"
                }
            ]
        },
        {
            "codec_type": "video",
            "stream_index": 1,
            "pts": 6380900454,
            "pts_time": "70898.893933",
            "dts": 6380894514,
            "dts_time": "70898.827933",
            "duration": 3003,
            "duration_time": "0.033367",
            "size": "1325",
            "pos": "164312",
            "flags": "__",
            "side_data_list": [
                {
                    "side_data_type": "MPEGTS Stream ID"
                }
            ]
        },
        {
            "codec_type": "video",
            "stream_index": 1,
            "pts": 6380907114,
            "pts_time": "70898.967933",
            "dts": 6380900274,
            "dts_time": "70898.891933",
            "duration": 3003,
            "duration_time": "0.033367",
            "size": "1386",
            "pos": "165816",
            "flags": "__",
            "side_data_list": [
                {
                    "side_data_type": "MPEGTS Stream ID"
                }
            ]
        },
        {
            "codec_type": "video",
            "stream_index": 1,
            "pts": 6380912064,
            "pts_time": "70899.022933",
            "dts": 6380906304,
            "dts_time": "70898.958933",
            "duration": 3003,
            "duration_time": "0.033367",
            "size": "1358",
            "pos": "167320",
            "flags": "__",
            "side_data_list": [
                {
                    "side_data_type": "MPEGTS Stream ID"
                }
            ]
        },
        {
            "codec_type": "video",
            "stream_index": 1,
            "pts": 6380918904,
            "pts_time": "70899.098933",
            "dts": 6380913144,
            "dts_time": "70899.034933",
            "duration": 3003,
            "duration_time": "0.033367",
            "size": "1519",
            "pos": "168824",
            "flags": "__",
            "side_data_list": [
                {
                    "side_data_type": "MPEGTS Stream ID"
                }
            ]
        },
        {
            "codec_type": "video",
            "stream_index": 1,
            "pts": 6380926194,
            "pts_time": "70899.179933",
            "dts": 6380918994,
            "dts_time": "70899.099933",
            "duration": 3003,
            "duration_time": "0.033367",
            "size": "2172",
            "pos": "170516",
            "flags": "__",
            "side_data_list": [
                {
                    "side_data_type": "MPEGTS Stream ID"
                }
            ]
        },
        {
            "codec_type": "video",
            "stream_index": 1,
            "pts": 6380930964,
            "pts_time": "70899.232933",
            "dts": 6380924754,
            "dts_time": "70899.163933",
            "duration": 3003,
            "duration_time": "0.033367",
            "size": "2404",
            "pos": "172772",
            "flags": "__",
            "side_data_list": [
                {
                    "side_data_type": "MPEGTS Stream ID"
                }
            ]
        },
        {
            "codec_type": "video",
            "stream_index": 1,
            "pts": 6380937084,
            "pts_time": "70899.300933",
            "dts": 6380931954,
            "dts_time": "70899.243933",
            "duration": 3003,
            "duration_time": "0.033367",
            "size": "2422",
            "pos": "175404",
            "flags": "__",
            "side_data_list": [
                {
                    "side_data_type": "MPEGTS Stream ID"
                }
            ]
        },
        {
            "codec_type": "video",
            "stream_index": 1,
            "pts": 6380945364,
            "pts_time": "70899.392933",
            "dts": 6380938254,
            "dts_time": "70899.313933",
            "duration": 3003,
            "duration_time": "0.033367",
            "size": "2593",
            "pos": "178036",
            "flags": "__",
            "side_data_list": [
                {
                    "side_data_type": "MPEGTS Stream ID"
                }
            ]
        },
        {
            "codec_type": "video",
            "stream_index": 1,
            "pts": 6380949234,
            "pts_time": "70899.435933",
            "dts": 6380943474,
            "dts_time": "70899.371933",
            "duration": 3003,
            "duration_time": "0.033367",
            "size": "2779",
            "pos": "180856",
            "flags": "__",
            "side_data_list": [
                {
                    "side_data_type": "MPEGTS Stream ID"
                }
            ]
        },
        {
            "codec_type": "video",
            "stream_index": 1,
            "pts": 6380956344,
            "pts_time": "70899.514933",
            "dts": 6380950674,
            "dts_time": "70899.451933",
            "duration": 3003,
            "duration_time": "0.033367",
            "size": "2215",
            "pos": "183864",
            "flags": "__",
            "side_data_list": [
                {
                    "side_data_type": "MPEGTS Stream ID"
                }
            ]
        },
        {
            "codec_type": "video",
            "stream_index": 1,
            "pts": 6380962194,
            "pts_time": "70899.579933",
            "dts": 6380956434,
            "dts_time": "70899.515933",
            "duration": 3003,
            "duration_time": "0.033367",
            "size": "1949",
            "pos": "186308",
            "flags": "__",
            "side_data_list": [
                {
                    "side_data_type": "MPEGTS Stream ID"
                }
            ]
        },
        {
            "codec_type": "video",
            "stream_index": 1,
            "pts": 6380969304,
            "pts_time": "70899.658933",
            "dts": 6380962194,
            "dts_time": "70899.579933",
            "duration": 3003,
            "duration_time": "0.033367",
            "size": "1844",
            "pos": "188376",
            "flags": "__",
            "side_data_list": [
                {
                    "side_data_type": "MPEGTS Stream ID"
                }
            ]
        },
        {
            "codec_type": "video",
            "stream_index": 1,
            "pts": 6380973894,
            "pts_time": "70899.709933",
            "dts": 6380967954,
            "dts_time": "70899.643933",
            "duration": 3003,
            "duration_time": "0.033367",
            "size": "1865",
            "pos": "190444",
            "flags": "__",
            "side_data_list": [
                {
                    "side_data_type": "MPEGTS Stream ID"
                }
            ]
        },
        {
            "codec_type": "video",
            "stream_index": 1,
            "pts": 6380980554,
            "pts_time": "70899.783933",
            "dts": 6380975064,
            "dts_time": "70899.722933",
            "duration": 3003,
            "duration_time": "0.033367",
            "size": "3236",
            "pos": "192512",
            "flags": "__",
            "side_data_list": [
                {
                    "side_data_type": "MPEGTS Stream ID"
                }
            ]
        },
        {
            "codec_type": "video",
            "stream_index": 1,
            "pts": 6380988204,
            "pts_time": "70899.868933",
            "dts": 6380981094,
            "dts_time": "70899.789933",
            "duration": 3003,
            "duration_time": "0.033367",
            "size": "2193",
            "pos": "195896",
            "flags": "__",
            "side_data_list": [
                {
                    "side_data_type": "MPEGTS Stream ID"
                }
            ]
        },
        {
            "codec_type": "video",
            "stream_index": 1,
            "pts": 6380992434,
            "pts_time": "70899.915933",
            "dts": 6380986674,
            "dts_time": "70899.851933",
            "duration": 3003,
            "duration_time": "0.033367",
            "size": "1850",
            "pos": "198340",
            "flags": "__",
            "side_data_list": [
                {
                    "side_data_type": "MPEGTS Stream ID"
                }
            ]
        },
        {
            "codec_type": "video",
            "stream_index": 1,
            "pts": 6380999544,
            "pts_time": "70899.994933",
            "dts": 6380993784,
            "dts_time": "70899.930933",
            "duration": 3003,
            "duration_time": "0.033367",
            "size": "2203",
            "pos": "200408",
            "flags": "__",
            "side_data_list": [
                {
                    "side_data_type": "MPEGTS Stream ID"
                }
            ]
        },
        {
            "codec_type": "video",
            "stream_index": 1,
            "pts": 6381005304,
            "pts_time": "70900.058933",
            "dts": 6380999544,
            "dts_time": "70899.994933",
            "duration": 3003,
            "duration_time": "0.033367",
            "size": "2150",
            "pos": "202852",
            "flags": "__",
            "side_data_list": [
                {
                    "side_data_type": "MPEGTS Stream ID"
                }
            ]
        },
        {
            "codec_type": "video",
            "stream_index": 1,
            "pts": 6381012504,
            "pts_time": "70900.138933",
            "dts": 6381005394,
            "dts_time": "70900.059933",
            "duration": 3003,
            "duration_time": "0.033367",
            "size": "1845",
            "pos": "205108",
            "flags": "__",
            "side_data_list": [
                {
                    "side_data_type": "MPEGTS Stream ID"
                }
            ]
        },
        {
            "codec_type": "video",
            "stream_index": 1,
            "pts": 6381017724,
            "pts_time": "70900.196933",
            "dts": 6381011154,
            "dts_time": "70900.123933",
            "duration": 3003,
            "duration_time": "0.033367",
            "size": "1762",
            "pos": "207176",
            "flags": "__",
            "side_data_list": [
                {
                    "side_data_type": "MPEGTS Stream ID"
                }
            ]
        },
        {
            "codec_type": "video",
            "stream_index": 1,
            "pts": 6381023124,
            "pts_time": "70900.256933",
            "dts": 6381018264,
            "dts_time": "70900.202933",
            "duration": 3003,
            "duration_time": "0.033367",
            "size": "1594",
            "pos": "209056",
            "flags": "__",
            "side_data_list": [
                {
                    "side_data_type": "MPEGTS Stream ID"
                }
            ]
        },
        {
            "codec_type": "video",
            "stream_index": 1,
            "pts": 6381032034,
            "pts_time": "70900.355933",
            "dts": 6381024924,
            "dts_time": "70900.276933",
            "duration": 3003,
            "duration_time": "0.033367",
            "size": "1607",
            "pos": "210748",
            "flags": "__",
            "side_data_list": [
                {
                    "side_data_type": "MPEGTS Stream ID"
                }
            ]
        },
        {
            "codec_type": "video",
            "stream_index": 1,
            "pts": 6381035634,
            "pts_time": "70900.395933",
            "dts": 6381029874,
            "dts_time": "70900.331933",
            "duration": 3003,
            "duration_time": "0.033367",
            "size": "1640",
            "pos": "212440",
            "flags": "__",
            "side_data_list": [
                {
                    "side_data_type": "MPEGTS Stream ID"
                }
            ]
        },
        {
            "codec_type": "video",
            "stream_index": 1,
            "pts": 6381042744,
            "pts_time": "70900.474933",
            "dts": 6381036984,
            "dts_time": "70900.410933",
            "duration": 3003,
            "duration_time": "0.033367",
            "size": "1749",
            "pos": "214320",
            "flags": "__",
            "side_data_list": [
                {
                    "side_data_type": "MPEGTS Stream ID"
                }
            ]
        },
        {
            "codec_type": "video",
            "stream_index": 1,
            "pts": 6381048504,
            "pts_time": "70900.538933",
            "dts": 6381042834,
            "dts_time": "70900.475933",
            "duration": 3003,
            "duration_time": "0.033367",
            "size": "1656",
            "pos": "216200",
            "flags": "__",
            "side_data_list": [
                {
                    "side_data_type": "MPEGTS Stream ID"
                }
            ]
        },
        {
            "codec_type": "video",
            "stream_index": 1,
            "pts": 6822968484,
            "pts_time": "75810.760933",
            "dts": 6381048594,
            "dts_time": "70900.539933",
            "duration": 3003,
            "duration_time": "0.033367",
            "size": "1648",
            "pos": "218080",
            "flags": "__"
        }
    ]
}
